PathFileType	4	(X/Y/Z)	C:/Users/opensim2020/Desktop/walking_exp_matlab/subject03_walking05_straight_01.trc																																																																																																																																					
DataRate	CameraRate	NumFrames	NumMarkers	Units	OrigDataRate	OrigDataStartFrame	OrigNumFrames																																																																																																																																	
100	100	9	45	mm	100	913	298																																																																																																																																	
Frame#	Time	LFHD			RFHD			LBHD			RBHD			C7			T10			CLAV			STRN			RBAK			LSHO			LUPA			LELB			LFRM			LWRA			LWRB			LFIN			RSHO			RUPA			RELB			RFRM			RWRA			RWRB			RFIN			LASI			RASI			LPSI			RPSI			LTHI			LKNE			LTIB			LANK			LHEE			LTOE			RTHI			RKNE			RTIB			RANK			RHEE			RTOE			*39			*40			*41			*42			*43			*44		
		X1	Y1	Z1	X2	Y2	Z2	X3	Y3	Z3	X4	Y4	Z4	X5	Y5	Z5	X6	Y6	Z6	X7	Y7	Z7	X8	Y8	Z8	X9	Y9	Z9	X10	Y10	Z10	X11	Y11	Z11	X12	Y12	Z12	X13	Y13	Z13	X14	Y14	Z14	X15	Y15	Z15	X16	Y16	Z16	X17	Y17	Z17	X18	Y18	Z18	X19	Y19	Z19	X20	Y20	Z20	X21	Y21	Z21	X22	Y22	Z22	X23	Y23	Z23	X24	Y24	Z24	X25	Y25	Z25	X26	Y26	Z26	X27	Y27	Z27	X28	Y28	Z28	X29	Y29	Z29	X30	Y30	Z30	X31	Y31	Z31	X32	Y32	Z32	X33	Y33	Z33	X34	Y34	Z34	X35	Y35	Z35	X36	Y36	Z36	X37	Y37	Z37	X38	Y38	Z38	X39	Y39	Z39	X40	Y40	Z40	X41	Y41	Z41	X42	Y42	Z42	X43	Y43	Z43	X44	Y44	Z44	X45	Y45	Z45
																																																																																																																																								
187	1.86	462.01935	1605.65588	-1072.78296	436.24591	1605.64783	-942.00659	332.74924	1571.5708	-1094.87476	312.48419	1570.84863	-965.52576	288.33578	1402.88379	-1038.23413	261.51227	1087.40027	-1031.36694	411.34424	1328.46838	-1031.01135	460.21854	1165.48376	-1038.85742	234.15985	1222.24146	-946.50067	371.05685	1365.43079	-1188.28027	395.51425	1176.01526	-1267.39661	437.53421	1062.47705	-1284.39978	525.09216	969.1701	-1275.77722	605.61237	888.45172	-1235.37769	585.29565	872.8952	-1284.65552	651.01251	825.34015	-1272.1709	354.89264	1348.26013	-872.63373	339.9278	1123.7959	-806.9162	346.04926	1009.8949	-797.03864	346.74402	872.51501	-797.95306	363.97388	774.29614	-836.12415	333.96182	772.72357	-790.57043	344.85675	698.78394	-804.20203	421.53998	921.01208	-1153.88452	441.64847	931.0451	-917.0329	264.48965	945.19623	-1088.85046	277.18777	956.09955	-940.93042	318.55115	627.37134	-1191.66333	282.11737	450.7941	-1165.82544	137.07478	308.12857	-1158.00366	13.32567	139.09123	-1110.37256	-35.15668	135.20714	-1071.01306	116.25889	27.60501	-1077.74414	436.42191	639.28601	-874.60425	495.27209	468.90369	-917.41534	495.78055	279.90399	-914.46185	523.00354	66.31124	-964.23053	480.29373	34.95451	-1016.62225	665.62622	33.81665	-981.92859	375.32095	1670.94885	-1035.21741	NaN	NaN	NaN	NaN	NaN	NaN	NaN	NaN	NaN	NaN	NaN	NaN	NaN	NaN	NaN
188	1.87	473.01886	1607.45813	-1072.07788	447.44507	1607.54321	-941.3429	343.67383	1573.88904	-1093.99316	323.6492	1573.29041	-964.63959	299.19977	1405.04736	-1037.29834	272.7666	1089.30298	-1030.9646	422.18057	1330.76843	-1030.22693	471.65265	1167.99609	-1038.0459	245.58881	1224.25659	-945.36548	381.57153	1368.05396	-1187.32007	404.97137	1178.16223	-1265.84839	445.96545	1064.15283	-1282.31921	531.6579	968.96832	-1274.32788	610.72668	886.51709	-1234.42273	589.72723	871.38495	-1283.72644	654.67407	822.6106	-1271.59692	365.93423	1350.86133	-871.93335	352.39734	1126.28088	-806.27637	358.96906	1012.45245	-796.65491	360.09943	875.17151	-797.2027	377.10556	776.87781	-835.33276	347.4166	775.31335	-789.50903	358.07281	701.23383	-803.46967	433.87085	922.92444	-1152.4812	452.97409	934.30963	-916.11908	276.78024	947.02429	-1088.92041	288.5108	959.35437	-940.93982	334.06766	627.84357	-1192.22998	300.84442	450.5524	-1168.32605	152.68056	311.13535	-1159.65417	24.25368	146.56999	-1111.28931	-23.48527	145.85448	-1071.23865	117.6228	27.45937	-1077.33008	446.5235	641.58954	-873.36206	501.38937	470.21457	-915.66595	497.82108	280.22946	-913.31604	522.34521	66.36788	-963.93036	480.00577	34.90924	-1016.16351	665.42145	33.72314	-981.9035	386.69992	1673.01965	-1034.42798	NaN	NaN	NaN	NaN	NaN	NaN	NaN	NaN	NaN	NaN	NaN	NaN	NaN	NaN	NaN
189	1.88	484.01971	1609.06836	-1071.44116	458.65726	1609.26147	-940.68146	354.4949	1576.00073	-1093.15613	334.62863	1575.5072	-963.79828	309.85956	1407.01428	-1036.34924	283.82761	1091.23108	-1030.57361	432.95779	1332.96399	-1029.49634	482.90521	1170.36377	-1037.25989	257.04004	1226.26624	-944.19055	391.96616	1370.65698	-1186.30396	414.42484	1180.35583	-1264.29822	454.21472	1065.77942	-1280.0802	537.97852	968.80511	-1272.79797	615.526	884.47247	-1233.55054	593.65698	869.80475	-1282.72351	657.68689	819.4884	-1270.99951	376.9483	1353.46838	-871.28735	364.71805	1128.87488	-805.53546	371.87762	1015.16083	-796.08813	373.33136	877.91425	-796.16321	390.7962	779.63843	-834.44165	361.3511	778.02783	-788.40338	371.64899	703.65222	-802.58667	446.40894	925.14044	-1150.62854	463.96439	937.39008	-915.10748	288.61938	948.8927	-1088.76575	299.78766	962.25885	-940.89844	349.88058	628.11548	-1192.90295	320.32755	450.14377	-1170.47986	169.67641	313.8056	-1161.10742	36.81747	153.51401	-1112.72302	-9.98307	156.35974	-1072.04382	119.4481	27.5137	-1077.5575	455.9848	643.48413	-872.03534	506.7984	471.26041	-913.97791	500.06567	280.60974	-912.26404	522.15405	66.74391	-963.47052	479.66959	34.94521	-1015.74542	665.25562	33.6264	-981.73755	397.60074	1675.96301	-1032.99573	NaN	NaN	NaN	NaN	NaN	NaN	NaN	NaN	NaN	NaN	NaN	NaN	NaN	NaN	NaN
190	1.89	494.98187	1610.48438	-1070.86731	469.80499	1610.68567	-940.05005	365.30826	1577.85571	-1092.42981	345.62885	1577.38794	-963.01129	320.45609	1408.58984	-1035.54492	294.64758	1092.93762	-1030.07874	443.63232	1334.87634	-1028.85583	494.17007	1172.54553	-1036.62891	268.47253	1228.20642	-943.00989	402.2677	1373.05566	-1185.27576	423.93826	1182.53308	-1262.69214	462.36749	1067.4021	-1278.03113	544.02466	968.53418	-1271.43079	619.95575	882.23041	-1232.71912	597.52277	868.21484	-1281.84949	660.28265	815.98395	-1270.39539	387.9021	1355.93628	-870.70453	376.94101	1131.42017	-804.61267	384.72583	1017.84601	-795.34821	387.17752	880.73413	-795.36853	404.8078	782.37817	-833.49426	375.69104	780.72156	-787.24139	385.8429	706.11047	-801.60608	457.76578	926.95367	-1149.34119	474.68268	940.02307	-913.94904	300.16202	950.77881	-1088.54883	310.91107	964.73602	-940.73956	366.00684	628.09479	-1193.4303	340.36526	449.508	-1172.13232	187.92917	315.97586	-1162.26013	51.10065	159.76498	-1114.5365	4.81998	166.69096	-1073.5824	121.97155	28.03492	-1079.22827	464.3526	644.90118	-871.04095	512.00128	471.94742	-912.65332	503.13376	281.01294	-911.17383	522.20654	66.84	-963.33099	479.6217	34.98187	-1015.49042	665.32343	33.5354	-981.74988	409.36456	1676.50391	-1032.97961	NaN	NaN	NaN	NaN	NaN	NaN	NaN	NaN	NaN	NaN	NaN	NaN	NaN	NaN	NaN
191	1.9	505.81195	1611.58459	-1070.28088	480.8869	1611.84167	-939.46729	376.04459	1579.42578	-1091.68494	356.54514	1578.92639	-962.23517	330.96506	1409.97546	-1034.70386	305.27994	1094.45105	-1029.51733	454.28827	1336.47412	-1028.25256	505.14618	1174.3269	-1036.047	279.819	1230.01355	-941.78308	412.42365	1375.19702	-1184.26807	433.43484	1184.42261	-1261.18726	470.30582	1068.69568	-1276.01624	549.96112	968.02655	-1270.08655	624.22491	879.7395	-1232.0144	601.21692	866.44061	-1281.13477	662.36383	811.96417	-1269.79871	398.91196	1358.12146	-870.23193	389.07855	1133.76013	-803.56403	397.40567	1020.33478	-794.32574	401.09088	883.30304	-794.22998	420.07324	785.22437	-831.65942	390.36899	783.17377	-785.9834	400.4162	708.40186	-800.66779	468.77182	928.5802	-1148.11633	485.22449	942.0592	-912.77612	311.31052	952.39703	-1088.22034	321.91049	966.73425	-940.4671	382.12845	627.72198	-1193.71216	360.83609	448.61295	-1173.2533	207.25432	317.69806	-1163.37842	66.85392	165.72809	-1116.14404	20.69183	176.75795	-1075.42834	127.6554	30.65975	-1081.40222	471.18506	645.64392	-870.89191	517.25623	472.11761	-911.63251	506.53281	281.34665	-910.62177	522.20367	66.90341	-963.40125	479.80066	34.87508	-1015.29749	665.44165	33.37767	-981.89355	420.52686	1677.99634	-1032.08826	NaN	NaN	NaN	NaN	NaN	NaN	NaN	NaN	NaN	NaN	NaN	NaN	NaN	NaN	NaN
192	1.91	516.65076	1612.49731	-1069.76599	491.87872	1612.74792	-938.94128	386.75781	1580.64551	-1091.03906	367.40002	1580.14771	-961.59479	341.3786	1410.98401	-1033.92749	315.85529	1095.69922	-1028.76306	464.914	1337.74463	-1027.74658	515.95825	1175.77441	-1035.63538	290.99155	1231.40088	-940.49286	422.46329	1376.86267	-1183.24268	442.88199	1186.02344	-1259.78516	478.08719	1069.62976	-1274.27161	555.74011	967.24695	-1268.90857	628.26721	876.79443	-1231.61157	604.63458	864.37061	-1280.41895	664.12665	807.57239	-1269.19495	409.9776	1359.94507	-869.77936	401.09552	1135.84753	-802.39453	410.00089	1022.55365	-793.06976	414.94357	885.56122	-792.94385	434.63229	787.58752	-830.67651	405.30414	785.36401	-784.73779	415.49649	710.48358	-799.6059	479.59067	929.94336	-1146.9823	495.65292	943.51147	-911.70789	322.0213	953.69818	-1087.72656	332.60837	968.26288	-939.99664	398.1214	627.06671	-1193.78333	381.76175	447.54749	-1174.11853	227.13107	319.0744	-1164.79846	82.62691	171.92207	-1117.45837	36.64716	185.64586	-1076.9292	137.45679	35.07403	-1084.56604	477.96088	646.14587	-870.4317	522.43469	471.95975	-911.14728	509.68921	281.48892	-910.49756	522.21478	66.94724	-963.54523	479.79337	34.90434	-1015.32593	665.52704	33.22418	-982.1048	431.57996	1679.0863	-1031.37769	NaN	NaN	NaN	NaN	NaN	NaN	NaN	NaN	NaN	NaN	NaN	NaN	NaN	NaN	NaN
193	1.92	527.42548	1613.32361	-1069.20117	502.76318	1613.55225	-938.3833	397.42508	1581.69604	-1090.40747	378.14722	1581.17053	-960.94873	351.7305	1411.86487	-1033.11279	326.42963	1096.71362	-1027.70117	475.45123	1338.73193	-1027.32068	526.52167	1176.84863	-1035.27832	302.15671	1232.82959	-939.14587	432.44193	1378.15002	-1182.32861	452.31989	1187.17053	-1258.5376	485.75357	1070.09497	-1272.79675	561.53156	966.0553	-1267.8623	632.3371	873.81885	-1230.92419	608.13892	862.10864	-1279.92261	665.57404	802.77142	-1268.55298	421.25003	1361.31152	-869.32623	413.03659	1137.61719	-801.04486	422.5014	1024.39978	-791.55884	429.05032	887.51086	-791.51978	449.65216	789.69049	-829.37012	420.42685	787.14185	-783.33051	431.00443	712.27124	-798.52136	490.07224	930.97906	-1146.19202	505.95013	944.26172	-910.78717	332.37582	954.50983	-1087.12354	342.63651	969.3667	-939.20239	413.98752	626.32904	-1193.71948	403.00037	446.40881	-1174.62268	247.36084	320.31454	-1166.25513	98.58434	178.69835	-1118.26208	52.90562	192.83852	-1077.29333	150.91444	39.76614	-1088.66589	484.37881	646.38831	-870.16431	527.84814	471.60632	-910.59143	512.56525	281.57962	-910.19727	522.12842	66.83827	-963.80457	479.74786	34.88482	-1015.36957	665.58417	33.08453	-982.27734	442.43054	1680.71948	-1030.68152	NaN	NaN	NaN	NaN	NaN	NaN	NaN	NaN	NaN	NaN	NaN	NaN	NaN	NaN	NaN
194	1.93	538.20044	1614.07288	-1068.76648	513.62292	1614.2644	-937.83032	408.10501	1582.71362	-1089.86035	388.94382	1582.13342	-960.367	362.04395	1412.70789	-1032.27051	336.83511	1097.60547	-1026.60376	485.83514	1339.60059	-1026.96912	536.7323	1177.57068	-1034.99426	313.08063	1233.76221	-937.75641	442.36618	1379.05566	-1181.70691	461.57565	1187.82056	-1257.47974	493.289	1070.12708	-1271.45715	567.20886	964.44562	-1266.91492	636.24139	870.36743	-1230.50037	611.49286	859.44855	-1279.39063	666.64252	797.51837	-1267.9187	432.38068	1362.49219	-868.88666	425.06226	1138.98096	-799.61407	435.01193	1025.8595	-789.79541	443.17188	889.03955	-789.97296	464.96667	791.55017	-827.98822	435.78635	788.57391	-781.97302	447.0152	713.72949	-797.32861	500.2742	931.75085	-1145.67065	516.25916	944.53601	-910.02765	342.46902	954.88477	-1086.34753	353.01416	969.86584	-938.3833	429.78366	625.80884	-1193.56348	424.51962	445.55557	-1175.172	267.87024	322.12711	-1166.90759	115.40503	184.94298	-1118.95483	69.97349	198.56796	-1077.24707	166.9917	44.67375	-1093.32104	491.10913	646.66724	-868.9093	532.85907	471.15137	-909.81946	515.1095	281.68127	-909.93103	522.03015	66.87556	-963.82391	479.59219	35.08155	-1015.4527	665.66724	32.94947	-982.3222	453.30087	1681.38135	-1030.14465	NaN	NaN	NaN	NaN	NaN	NaN	NaN	NaN	NaN	NaN	NaN	NaN	NaN	NaN	NaN
195	1.94	548.91644	1614.72705	-1068.24194	524.46448	1614.8866	-937.36304	418.76947	1583.62842	-1089.31836	399.67209	1582.98096	-959.80133	372.3454	1413.49744	-1031.45886	347.11102	1098.27405	-1025.49426	496.07321	1340.35059	-1026.65295	546.82239	1178.15356	-1034.802	323.76929	1234.46899	-936.3067	452.17224	1379.62024	-1181.2677	470.69339	1187.9823	-1256.57288	500.77155	1069.62488	-1270.23987	572.9455	962.43939	-1266.09021	639.89746	866.41107	-1230.33911	614.69342	856.43652	-1278.95544	667.59235	792.15564	-1267.31323	443.57806	1363.21863	-868.37866	436.99655	1139.91577	-798.10474	447.63965	1026.94043	-787.91595	457.33472	890.27527	-788.34845	480.45276	793.08667	-826.56415	451.29712	789.62927	-780.57672	463.29498	714.966	-796.09143	510.22186	932.27728	-1145.29211	526.05737	944.10822	-909.35632	352.24771	954.84821	-1085.46155	363.24765	970.05487	-937.42126	445.52158	625.75226	-1193.48218	446.23831	445.33875	-1175.70251	288.46262	324.52328	-1166.92249	133.65822	190.04558	-1119.63086	88.04336	202.96536	-1077.36804	185.24753	49.27319	-1096.99255	497.98669	647.03094	-867.19458	537.40625	470.79919	-908.74042	517.36176	281.77692	-909.61084	522.04169	66.95607	-963.91095	479.59399	35.17977	-1015.45227	665.73199	32.84622	-982.3371	464.2872	1681.52576	-1029.69507	NaN	NaN	NaN	NaN	NaN	NaN	NaN	NaN	NaN	NaN	NaN	NaN	NaN	NaN	NaN
